%
M48
M72
T01C0.03150
T02C0.03200
T03C0.04000
T04C0.04331
T05C0.04400
%
T01
X19500Y14867
X19500Y24867
X29500Y24867
X29500Y24867
X39500Y24867
X49500Y24867
X59500Y24867
X69500Y24867
X79500Y24867
X89500Y24867
X99500Y24867
X109500Y24867
X109500Y14867
X99500Y14867
X99500Y14867
X89500Y14867
X79500Y14867
X69500Y14867
X59500Y14867
X49500Y14867
X39500Y14867
X29500Y14867
X29500Y183867
X29500Y183867
X29500Y193867
X29500Y193867
X19500Y193867
X19500Y183867
X39500Y183867
X39500Y193867
X49500Y193867
X59500Y193867
X69500Y193867
X79500Y193867
X89500Y193867
X99500Y193867
X109500Y193867
X109500Y183867
X99500Y183867
X89500Y183867
X79500Y183867
X69500Y183867
X59500Y183867
X49500Y183867
X144500Y256367
X144500Y266367
X144500Y286367
X144500Y296367
X144500Y306367
T02
X169500Y278867
X169500Y271367
X169500Y263867
X119500Y246367
X104500Y241367
X89500Y241367
X74500Y241367
X59500Y241367
X44500Y241367
X29500Y241367
X14500Y241367
X14500Y221367
X29500Y211367
X44500Y221367
X59500Y211367
X74500Y221367
X89500Y211367
X104500Y221367
X119500Y216367
X99500Y261367
X79500Y261367
X39500Y261367
X19500Y261367
X19500Y321367
X39500Y321367
X79500Y321367
X99500Y321367
T03
X94500Y161367
X84500Y161367
X74500Y161367
X64500Y161367
X54500Y161367
X44500Y161367
X34500Y161367
X24500Y161367
X14500Y161367
X104500Y161367
X114500Y161367
X124500Y161367
X134500Y161367
X144500Y161367
X144500Y51367
X134500Y51367
X124500Y51367
X114500Y51367
X104500Y51367
X94500Y51367
X84500Y51367
X74500Y51367
X64500Y51367
X54500Y51367
X44500Y51367
X34500Y51367
X24500Y51367
X14500Y51367
T04
X169500Y301367
X169500Y321367
T05
X89500Y306367
X79500Y306367
X69500Y306367
X59500Y306367
X49500Y306367
X39500Y306367
X29500Y306367
X29500Y276367
X39500Y276367
X49500Y276367
X59500Y276367
X69500Y276367
X79500Y276367
X89500Y276367
M30
