%
M48
M72
T01C0.02200
T02C0.02362
T03C0.03150
T04C0.03200
T05C0.04000
T06C0.04400
%
T01
X64500Y116000
X100750Y264750
X278250Y81000
X285750Y76000
X295750Y86000
T02
X304500Y311000
X194500Y311000
T03
X17000Y28500
X32059Y33480
X42000Y23500
X144500Y256000
X144500Y266000
X144500Y286000
X144500Y296000
X144500Y306000
T04
X99500Y321000
X79500Y321000
X39500Y321000
X19500Y321000
X19500Y261000
X39500Y261000
X44500Y241000
X44500Y221000
X74500Y221000
X74500Y241000
X89500Y251000
X109500Y251000
X114500Y236000
X114500Y216000
X84500Y166000
X74500Y166000
X59500Y166000
X59500Y176000
X49500Y176000
X59500Y146000
X74500Y146000
X84500Y146000
X19500Y151000
X19500Y161000
X14500Y221000
X14500Y241000
X199500Y231000
X199500Y221000
X219500Y221000
X229500Y221000
X239500Y221000
X254500Y221000
X264500Y221000
X264500Y236000
X264500Y256000
X239500Y276000
X219500Y276000
X199500Y251000
X74500Y61000
X74500Y41000
T05
X104500Y41000
X104500Y31000
X104500Y21000
X104500Y51000
X104500Y61000
X104500Y71000
X104500Y81000
X104500Y91000
X104500Y101000
X104500Y111000
X104500Y121000
X104500Y131000
X104500Y141000
X104500Y151000
X104500Y161000
X104500Y171000
X104500Y181000
X104500Y191000
X104500Y201000
X164500Y201000
X164500Y191000
X164500Y181000
X164500Y171000
X164500Y161000
X164500Y151000
X164500Y141000
X164500Y131000
X164500Y121000
X164500Y111000
X164500Y101000
X164500Y91000
X164500Y81000
X164500Y71000
X164500Y61000
X164500Y51000
X164500Y41000
X164500Y31000
X164500Y21000
T06
X34500Y136000
X34500Y176000
X29500Y276000
X39500Y276000
X49500Y276000
X59500Y276000
X69500Y276000
X79500Y276000
X89500Y276000
X89500Y306000
X79500Y306000
X69500Y306000
X59500Y306000
X49500Y306000
X39500Y306000
X29500Y306000
M30
