%
M48
M72
T01C0.04000
%
T01
X12600Y10300
X12600Y20300
X12600Y30300
X12600Y40300
X12600Y50300
X12600Y60300
X12600Y70300
X12600Y80300
X12600Y90300
X12600Y100300
X12600Y110300
X12600Y120300
X12600Y130300
X12600Y140300
X12600Y150300
X12600Y160300
X12600Y170300
X12600Y180300
X12600Y190300
X102600Y190300
X102600Y180300
X102600Y170300
X102600Y160300
X102600Y150300
X102600Y140300
X102600Y130300
X102600Y120300
X102600Y110300
X102600Y100300
X102600Y90300
X102600Y80300
X102600Y70300
X102600Y60300
X102600Y50300
X102600Y40300
X102600Y30300
X102600Y20300
X102600Y10300
M30
