%
M48
M72
T01C0.04000
%
T01
X16000Y16000
X16000Y26000
X16000Y36000
X16000Y46000
X16000Y56000
X16000Y66000
X16000Y76000
X16000Y86000
X16000Y96000
X16000Y106000
X16000Y116000
X16000Y126000
X16000Y136000
X16000Y146000
X126000Y146000
X126000Y136000
X126000Y126000
X126000Y116000
X126000Y106000
X126000Y96000
X126000Y86000
X126000Y76000
X126000Y66000
X126000Y56000
X126000Y46000
X126000Y36000
X126000Y26000
X126000Y16000
M30
