%
M48
M72
T01C0.04000
%
T01
X71000Y21000
X71000Y31000
X71000Y41000
X71000Y51000
X71000Y61000
X71000Y71000
X71000Y81000
X71000Y91000
X71000Y101000
X71000Y111000
X71000Y121000
X71000Y131000
X71000Y141000
X71000Y151000
X71000Y161000
X71000Y171000
X181000Y171000
X181000Y161000
X181000Y151000
X181000Y141000
X181000Y131000
X181000Y121000
X181000Y111000
X181000Y101000
X181000Y91000
X181000Y81000
X181000Y71000
X181000Y61000
X181000Y51000
X181000Y41000
X181000Y31000
X181000Y21000
M30
