%
M48
M72
T01C0.04000
%
T01
X17000Y24000
X17000Y34000
X17000Y44000
X17000Y54000
X17000Y64000
X17000Y74000
X17000Y84000
X17000Y94000
X17000Y104000
X17000Y114000
X17000Y124000
X17000Y134000
X17000Y144000
X17000Y154000
X17000Y164000
X17000Y174000
X127000Y174000
X127000Y164000
X127000Y154000
X127000Y144000
X127000Y134000
X127000Y124000
X127000Y114000
X127000Y104000
X127000Y94000
X127000Y84000
X127000Y74000
X127000Y64000
X127000Y54000
X127000Y44000
X127000Y34000
X127000Y24000
M30
