%
M48
M72
T01C0.02200
T02C0.02362
T03C0.03150
T04C0.03200
T05C0.04000
T06C0.04400
%
T01
X115375Y18625
X113500Y28500
X125875Y42625
X121375Y46875
X212000Y18500
X287625Y93500
T02
X139500Y206000
X129500Y206000
X109000Y89500
X109000Y79500
X107500Y71000
T03
X215500Y149500
X227000Y285500
X17000Y285500
T04
X19500Y16000
X39500Y16000
X56500Y89000
X56500Y99000
X56500Y109000
X54500Y141000
X34500Y141000
X19500Y126000
X19500Y106000
X41500Y164500
X51500Y164500
X48000Y184000
X68000Y184000
X87000Y191000
X87000Y211000
X57500Y219000
X37500Y219000
X37000Y226000
X27000Y226000
X34500Y246000
X44500Y246000
X114500Y246000
X114500Y226000
X154500Y226000
X174000Y221000
X174000Y231000
X154500Y246000
X199000Y245000
X209000Y245000
X224500Y245000
X234500Y245000
X234500Y231500
X224500Y231500
X208500Y225000
X208500Y205000
X110500Y171000
X90500Y171000
X355000Y82500
X355000Y72500
X355000Y62500
X355000Y52500
X355000Y42500
X355000Y32500
X355000Y22500
X355000Y12500
X385000Y12500
X385000Y22500
X385000Y32500
X385000Y42500
X385000Y52500
X385000Y62500
X385000Y72500
X385000Y82500
X384500Y141000
X364500Y141000
X364500Y161000
X384500Y161000
X384500Y181000
X364500Y181000
X364500Y201000
X384500Y201000
X384500Y221000
X364500Y221000
X364500Y241000
X384500Y241000
X384500Y261000
X364500Y261000
X364500Y281000
X384500Y281000
T05
X339500Y281000
X339500Y271000
X339500Y261000
X339500Y251000
X339500Y241000
X339500Y231000
X339500Y221000
X339500Y211000
X339500Y201000
X339500Y191000
X339500Y181000
X339500Y171000
X339500Y161000
X339500Y151000
X339500Y141000
X339500Y131000
X339500Y121000
X339500Y111000
X339500Y101000
X249500Y101000
X249500Y111000
X249500Y121000
X249500Y131000
X249500Y141000
X249500Y151000
X249500Y161000
X249500Y171000
X249500Y181000
X249500Y191000
X249500Y201000
X249500Y211000
X249500Y221000
X249500Y231000
X249500Y241000
X249500Y251000
X249500Y261000
X249500Y271000
X249500Y281000
T06
X189500Y231000
X189500Y221100
M30
